<?xml version="1.0" standalone="no"?>
<!DOCTYPE svg PUBLIC "-//W3C//DTD SVG 20010904//EN"
 "http://www.w3.org/TR/2001/REC-SVG-20010904/DTD/svg10.dtd">
<svg version="1.0" xmlns="http://www.w3.org/2000/svg"
 width="209.000000pt" height="209.000000pt" viewBox="0 0 209.000000 209.000000"
 preserveAspectRatio="xMidYMid meet">
<metadata>
Created by potrace 1.11, written by Peter Selinger 2001-2013
</metadata>
<g transform="translate(0.000000,209.000000) scale(0.100000,-0.100000)"
fill="#000000" stroke="none">
<path d="M42 1571 l3 -513 483 0 c265 -1 484 1 486 3 5 4 -1 10 -640 675 -116
120 -239 248 -273 284 l-61 64 2 -513z"/>
<path d="M1986 2036 c-21 -22 -127 -133 -235 -245 -108 -111 -196 -206 -196
-211 0 -4 90 -101 200 -215 110 -114 216 -225 236 -246 20 -22 38 -39 40 -39
6 0 4 988 -1 993 -3 3 -22 -14 -44 -37z"/>
<path d="M1478 1507 c-27 -28 -133 -140 -237 -247 -104 -107 -188 -196 -186
-198 2 -3 832 -5 928 -3 l39 1 -29 29 c-15 15 -124 128 -242 250 -117 121
-216 221 -220 221 -3 0 -27 -24 -53 -53z"/>
<path d="M53 1021 c11 -14 103 -110 350 -366 l106 -110 1 246 0 246 -235 0
c-210 0 -233 -2 -222 -16z"/>
<path d="M530 778 l0 -258 248 0 248 0 0 258 0 258 -248 0 -248 1 0 -259z"/>
<path d="M1049 1026 c-5 -50 -2 -1016 3 -1016 3 0 8 4 10 9 2 5 59 67 128 138
137 141 538 558 584 607 16 17 77 81 136 141 58 61 109 115 113 121 4 8 -131
11 -483 11 -343 0 -490 -4 -491 -11z"/>
<path d="M566 488 c4 -7 58 -65 119 -128 61 -63 163 -168 226 -233 l114 -119
1 246 0 246 -233 0 c-185 0 -233 -3 -227 -12z"/>
</g>
</svg>
