<?xml version="1.0" encoding="UTF-8" standalone="no"?>
<svg width="100px" height="100px" viewBox="0 0 100 100" version="1.1" xmlns="http://www.w3.org/2000/svg" xmlns:xlink="http://www.w3.org/1999/xlink">
    <!-- Generator: Sketch 43.2 (39069) - http://www.bohemiancoding.com/sketch -->
    <title>social-services</title>
    <desc>Created with Sketch.</desc>
    <defs></defs>
    <g id="Page-1" stroke="none" stroke-width="1" fill="none" fill-rule="evenodd">
        <g id="Banner-Features" transform="translate(-216.000000, -26.000000)" fill-rule="nonzero">
            <g id="Community" transform="translate(50.000000, 4.000000)">
                <g id="social-services" transform="translate(166.000000, 22.000000)">
                    <circle id="Oval" fill="#273B7A" cx="50" cy="50" r="50"></circle>
                    <path d="M51.0246094,99.9871094 C73.8484375,99.5279297 92.9191406,83.7777344 98.4083984,62.5597656 L60.5615234,24.7128906 L55.3986328,31.5054688 L48.4130859,24.5199219 L44.4443359,26.4873047 L44.4443359,26.4873047 L44.0935547,37.3667969 L70.2019531,63.4748047 L70.2019531,70.2162109 L52.1052734,52.1195313 L50.9984375,54.4837891 L35.4146484,38.9 L34.1066406,40.8619141 L29.2800781,45.4986328 L34.6982422,50.7558594 L34.4201172,57.2857422 L25.9777344,63.9058594 L31.8417969,69.6429688 L28.6556641,77.6177734 L51.0246094,99.9871094 Z" id="Shape" fill="#121149"></path>
                    <path d="M49.3603516,42.4201172 C49.6667969,42.871875 50.3337891,42.871875 50.6402344,42.4201172 C53.0863281,38.8109375 61.7105469,34.3292969 61.7105469,28.5261719 C61.7105469,24.5242188 59.0890625,22.6708984 55.8552734,22.6708984 C52.6214844,22.6708984 50,25.2925781 50,28.5261719 C50,25.2925781 47.3785156,22.6708984 44.1447266,22.6708984 C40.9109375,22.6708984 38.2894531,24.5240234 38.2894531,28.5261719 C38.2896484,34.3292969 46.9138672,38.8111328 49.3603516,42.4201172 Z" id="Shape" fill="#FF314F"></path>
                    <path d="M55.8552734,22.6710937 C52.6216797,22.6710937 50,25.2925781 50,28.5263672 C50,28.5123047 49.9980469,28.4984375 49.9980469,28.4839844 L49.9980469,42.7589844 C50.2421875,42.7595703 50.4865234,42.646875 50.6400391,42.4203125 C53.0861328,38.8111328 61.7103516,34.3294922 61.7103516,28.5263672 C61.7103516,24.5242187 59.0888672,22.6710937 55.8552734,22.6710937 Z" id="Shape" fill="#A30F44"></path>
                    <circle id="Oval" fill="#FEE187" cx="49.9697266" cy="54.2357422" r="3.0078125"></circle>
                    <path d="M52.7310547,77.1919922 L52.7310547,69.8261719 C52.7310547,69.3177734 53.1431641,68.9052734 53.6519531,68.9052734 L53.6519531,68.9052734 C54.1603516,68.9052734 54.5728516,68.4931641 54.5728516,67.984375 L54.5728516,60.2667969 C54.5728516,59.9179688 54.3757812,59.5990234 54.0636719,59.4431641 L51.0841797,57.9533203 C50.95625,57.8892578 50.8154297,57.8560547 50.6724609,57.8560547 L49.2658203,57.8560547 C49.1226562,57.8560547 48.9820312,57.8894531 48.8541016,57.9533203 L45.8746094,59.4431641 C45.5628906,59.5990234 45.3654297,59.9179688 45.3654297,60.2667969 L45.3654297,67.984375 C45.3654297,68.4927734 45.7775391,68.9052734 46.2863281,68.9052734 L46.2863281,68.9052734 C46.7947266,68.9052734 47.2072266,69.3173828 47.2072266,69.8261719 L47.2072266,77.1917969 C47.2072266,77.7001953 47.6193359,78.1126953 48.128125,78.1126953 L51.8109375,78.1126953 C52.3189453,78.1128906 52.7310547,77.7003906 52.7310547,77.1919922 Z" id="Shape" fill="#FFC61B"></path>
                    <circle id="Oval" fill="#FEE187" cx="32.4748047" cy="42.3164063" r="4.50917969"></circle>
                    <path d="M36.6152344,76.7324219 L36.6152344,65.6900391 C36.6152344,64.9277344 37.2330078,64.3099609 37.9953125,64.3099609 L37.9953125,64.3099609 C38.7576172,64.3099609 39.3753906,63.6921875 39.3753906,62.9298828 L39.3753906,51.3601563 C39.3753906,50.8373047 39.0800781,50.3595703 38.6125,50.1253906 L34.1458984,47.8919922 C33.9542969,47.7960938 33.7427734,47.7462891 33.5287109,47.7462891 L31.4199219,47.7462891 C31.2058594,47.7462891 30.9943359,47.7960938 30.8027344,47.8919922 L26.3361328,50.1253906 C25.8683594,50.3589844 25.5732422,50.8371094 25.5732422,51.3601563 L25.5732422,62.9294922 C25.5732422,63.6917969 26.1910156,64.3095703 26.9533203,64.3095703 L26.9533203,64.3095703 C27.715625,64.3095703 28.3333984,64.9273438 28.3333984,65.6896484 L28.3333984,76.7320313 C28.3333984,77.4943359 28.9511719,78.1121094 29.7134766,78.1121094 L35.2347656,78.1121094 C35.9972656,78.1128906 36.6152344,77.4945313 36.6152344,76.7324219 Z" id="Shape" fill="#FFC61B"></path>
                    <circle id="Oval" fill="#FEE187" cx="67.4646484" cy="42.3164063" r="4.50917969"></circle>
                    <g id="Group" transform="translate(50.000000, 47.656250)" fill="#FFC61B">
                        <path d="M21.6041016,29.0761719 L21.6041016,18.0337891 C21.6041016,17.2714844 22.221875,16.6537109 22.9841797,16.6537109 L22.9841797,16.6537109 C23.7464844,16.6537109 24.3642578,16.0359375 24.3642578,15.2736328 L24.3642578,3.70390625 C24.3642578,3.18105469 24.0689453,2.70332031 23.6013672,2.46914063 L19.1347656,0.235742188 C18.9431641,0.13984375 18.7316406,0.0900390625 18.5175781,0.0900390625 L16.4087891,0.0900390625 C16.1947266,0.0900390625 15.9832031,0.13984375 15.7916016,0.235742188 L11.325,2.46914063 C10.8572266,2.70273438 10.5621094,3.18085938 10.5621094,3.70390625 L10.5621094,15.2732422 C10.5621094,16.0355469 11.1798828,16.6533203 11.9421875,16.6533203 L11.9421875,16.6533203 C12.7044922,16.6533203 13.3222656,17.2710938 13.3222656,18.0333984 L13.3222656,29.0757813 C13.3222656,29.8380859 13.9400391,30.4558594 14.7023437,30.4558594 L20.2236328,30.4558594 C20.9861328,30.4566406 21.6041016,29.8382813 21.6041016,29.0761719 Z" id="Shape"></path>
                        <path d="M2.97636719,6.57910156 C2.97636719,4.92851562 1.64648437,3.59023437 0,3.57304687 L0,9.58515625 C1.64648438,9.56835937 2.97636719,8.2296875 2.97636719,6.57910156 Z" id="Shape"></path>
                    </g>
                    <path d="M54.0632812,59.44375 L51.0837891,57.9539062 C50.9558594,57.8898437 50.8150391,57.8566406 50.6720703,57.8566406 L50,57.8566406 L50,78.1121094 L51.8101563,78.1121094 C52.3185547,78.1121094 52.7306641,77.7 52.7306641,77.1916016 L52.7306641,69.8259766 C52.7306641,69.3175781 53.1427734,68.9054687 53.6511719,68.9054687 C54.1595703,68.9054687 54.5720703,68.4933594 54.5720703,67.9845703 L54.5720703,60.2669922 C54.5724609,59.9189453 54.3753906,59.6 54.0632812,59.44375 Z" id="Shape" fill="#EAA22F"></path>
                    <path d="M32.4744141,37.8080078 C32.4423828,37.8080078 32.4115234,37.8121094 32.3794922,37.8126953 L32.3794922,46.8210937 C32.4115234,46.8216797 32.4423828,46.8257812 32.4744141,46.8257812 C34.9646484,46.8257812 36.9835938,44.8068359 36.9835938,42.3166016 C36.9832031,39.8265625 34.9646484,37.8080078 32.4744141,37.8080078 Z" id="Shape" fill="#FFC61B"></path>
                    <path d="M38.6128906,50.1251953 L34.1462891,47.8917969 C33.9546875,47.7960938 33.7431641,47.7460938 33.5291016,47.7460938 L32.3798828,47.7460938 L32.3798828,78.1125 L35.2353516,78.1125 C35.9976562,78.1125 36.6154297,77.4947266 36.6154297,76.7324219 L36.6154297,65.6900391 C36.6154297,64.9277344 37.2332031,64.3099609 37.9955078,64.3099609 C38.7578125,64.3099609 39.3755859,63.6921875 39.3755859,62.9294922 L39.3755859,51.3597656 C39.3757812,50.8371094 39.0804687,50.3589844 38.6128906,50.1251953 Z" id="Shape" fill="#EAA22F"></path>
                    <path d="M67.4632813,37.8080078 C67.440625,37.8080078 67.41875,37.8111328 67.3962891,37.8113281 L67.3962891,46.8224609 C67.4189453,46.8228516 67.4408203,46.8257812 67.4632813,46.8257812 C69.9535156,46.8257812 71.9724609,44.8068359 71.9724609,42.3166016 C71.9720703,39.8265625 69.9535156,37.8080078 67.4632813,37.8080078 Z" id="Shape" fill="#FFC61B"></path>
                    <path d="M73.6017578,50.1251953 L69.1351562,47.8917969 C68.9435547,47.7960938 68.7320312,47.7460938 68.5179687,47.7460938 L67.3964844,47.7460938 L67.3964844,78.1125 L70.2240234,78.1125 C70.9863281,78.1125 71.6041016,77.4947266 71.6041016,76.7324219 L71.6041016,65.6900391 C71.6041016,64.9277344 72.221875,64.3099609 72.9841797,64.3099609 L72.9841797,64.3099609 C73.7464844,64.3099609 74.3642578,63.6921875 74.3642578,62.9294922 L74.3642578,51.3597656 C74.3646484,50.8371094 74.0693359,50.3589844 73.6017578,50.1251953 Z" id="Shape" fill="#EAA22F"></path>
                </g>
            </g>
        </g>
    </g>
</svg>