<?xml version="1.0" encoding="UTF-8" standalone="no"?>
<svg width="100px" height="100px" viewBox="0 0 100 100" version="1.1" xmlns="http://www.w3.org/2000/svg" xmlns:xlink="http://www.w3.org/1999/xlink">
    <!-- Generator: Sketch 43.2 (39069) - http://www.bohemiancoding.com/sketch -->
    <title>megaphone</title>
    <desc>Created with Sketch.</desc>
    <defs></defs>
    <g id="Page-1" stroke="none" stroke-width="1" fill="none" fill-rule="evenodd">
        <g id="Banner-Features" transform="translate(-670.000000, -26.000000)" fill-rule="nonzero">
            <g id="Education" transform="translate(504.000000, 4.000000)">
                <g id="Icon-and-text" transform="translate(53.000000, 22.000000)">
                    <g id="megaphone" transform="translate(113.000000, 0.000000)">
                        <ellipse id="Oval" fill="#273B7A" cx="49.7890295" cy="49.618997" rx="49.7890295" ry="49.618997"></ellipse>
                        <g id="Group" transform="translate(15.948049, 23.646553)" fill="#121149">
                            <path d="M65.8568829,6.61735225 L83.5988924,24.2987717 C83.4866726,20.9246799 83.0370154,17.6358708 82.2812335,14.4649067 L70.7134527,2.86607855 L70.1029536,3.30140772 L67.7640361,1.07940701 L65.8568829,6.61735225 Z" id="Shape"></path>
                            <path d="M75.8769251,52.5715211 L38.7461729,15.5584629 L32.2582344,22.172714 L0.0688488924,39.7415216 L12.5808709,51.6648115 L9.45777624,53.8761519 L31.2643987,75.526122 C32.1176193,75.5695386 32.9766746,75.5916345 33.8407865,75.5916345 C51.5178369,75.5914407 67.0420952,66.4097942 75.8769251,52.5715211 Z" id="Shape"></path>
                            <path d="M49.2215124,24.8286871 L76.3660634,51.7906034 C80.0485067,45.7795333 82.4811676,38.9261031 83.3106606,31.5885001 L51.6798457,0.0657064062 L47.8690401,1.94483209 L46.9024328,0.952064505 L45.0619891,5.87694378 L55.8595959,16.6376761 L55.4011867,17.1786395 L51.9910272,13.6915482 L49.2215124,24.8286871 Z" id="Shape"></path>
                        </g>
                        <path d="M29.8228507,78.1650385 L27.0959289,78.1650385 C25.9107166,78.1650385 24.88304,77.3488448 24.6185357,76.1973352 L21.5061379,62.649217 L29.4474881,62.649217 L32.3004384,75.0665648 C32.6647152,76.6532097 31.4555808,78.1650385 29.8228507,78.1650385 Z" id="Shape" fill="#B54324"></path>
                        <path d="M65.0458663,48.2620337 C65.1337751,48.5864954 65.5233353,48.720428 65.7932852,48.5190446 C67.9491891,46.9101099 73.8882813,46.0340245 75.05774,42.6570253 C75.8644778,40.3280336 74.7070774,38.7231692 72.8187896,38.0736643 C70.9305017,37.4241594 68.8714531,38.4231293 68.2197224,40.3049685 C68.8714531,38.4231293 67.8690599,36.3711124 65.980772,35.7216075 C64.0924842,35.0721026 62.1880538,35.6241139 61.3817049,37.9529118 C60.2118572,41.3301048 64.3445411,45.6706041 65.0458663,48.2620337 Z" id="Shape" fill="#FFAD9E"></path>
                        <path d="M72.8184006,38.0736643 C70.9301127,37.4241594 68.8710641,38.4231293 68.2193335,40.3049685 C68.2224453,40.2966341 68.2236122,40.2882997 68.226724,40.2799652 L65.3500461,48.5872707 C65.4926061,48.6366959 65.6579213,48.620027 65.7932852,48.5190446 C67.9491891,46.9101099 73.8882812,46.0340245 75.05774,42.6570253 C75.8640889,40.3280336 74.7066884,38.7231692 72.8184006,38.0736643 Z" id="Shape" fill="#FF6262"></path>
                        <path d="M64.1434401,31.7003367 C64.2980584,31.8668317 64.572676,31.8253533 64.6708927,31.6204811 C65.453514,29.9861554 68.7267537,27.6085139 68.3640328,25.2258329 C68.1139208,23.5825913 66.9180116,22.9848374 65.5855716,23.1862208 C64.2531316,23.3876041 63.3368968,24.6273037 63.5389702,25.9551934 C63.3367023,24.6273037 62.092949,23.7141979 60.760509,23.9155813 C59.428069,24.1171584 58.4637955,25.0413122 58.7139076,26.6845539 C59.0762395,29.0674287 62.9098002,30.3705088 64.1434401,31.7003367 Z" id="Shape" fill="#FFAD9E"></path>
                        <path d="M65.5853771,23.1862208 C64.2529371,23.3877979 63.3367023,24.6273037 63.5387757,25.9551934 C63.5378033,25.9491848 63.5360529,25.9437578 63.5350804,25.9377492 L64.4271987,31.7993809 C64.5277492,31.7842626 64.6212981,31.7228203 64.6706982,31.6202873 C65.4533195,29.9859616 68.7265592,27.60832 68.3638383,25.2256391 C68.1137263,23.5825913 66.9178171,22.9848374 65.5853771,23.1862208 Z" id="Shape" fill="#FF6262"></path>
                        <path d="M81.6983518,30.0853934 C81.7061313,30.2421972 81.8706685,30.341629 82.013812,30.2765041 C83.1577927,29.7545355 85.9560918,29.9400253 86.8250659,28.5136729 C87.4244792,27.5300151 87.0553402,26.6831971 86.2577433,26.200381 C85.4601464,25.7179526 84.4209949,25.9708931 83.9365243,26.7657662 C84.4209949,25.9708931 84.1667985,24.9352904 83.3692016,24.4524743 C82.5716047,23.9700459 81.6475903,24.0342017 81.0479826,25.0178595 C80.1793974,26.4444057 81.635532,28.8334829 81.6983518,30.0853934 Z" id="Shape" fill="#FFAD9E"></path>
                        <path d="M86.2581323,26.2005748 C85.4605353,25.7181464 84.4213838,25.971087 83.9369132,26.76596 C83.9388581,26.7622774 83.9406085,26.7585947 83.9425534,26.7552997 L81.8045425,30.2640993 C81.8646394,30.3005383 81.9416568,30.3094542 82.013812,30.2768917 C83.1577927,29.7549231 85.9560918,29.9404129 86.8250659,28.5140606 C87.4244792,27.5300151 87.0557292,26.6833909 86.2581323,26.2005748 Z" id="Shape" fill="#FF6262"></path>
                        <path d="M50.5453949,71.2639277 L15.612945,61.3174508 L15.612945,50.9736344 L50.5453949,41.0271575 C51.2443862,40.8281001 51.9400712,41.3512316 51.9400712,42.0757465 L51.9400712,70.2159202 C51.9402657,70.9400474 51.2441917,71.4629851 50.5453949,71.2639277 Z" id="Shape" fill="#FFC61B"></path>
                        <path d="M15.612945,55.7446172 L15.612945,61.317257 L50.5453949,71.2637338 C51.2443862,71.4627913 51.9400712,70.9396598 51.9400712,70.2151449 L51.9400712,55.7444234 L15.612945,55.7444234 L15.612945,55.7446172 Z" id="Shape" fill="#EAA22F"></path>
                        <polygon id="Shape" fill="#E09112" points="36.3710806 67.2283138 46.7503428 70.1833577 46.7503428 42.1077275 36.3710806 45.063159"></polygon>
                        <polygon id="Shape" fill="#FF5419" points="36.3710806 55.7446172 36.3710806 67.2283138 46.7503428 70.1833577 46.7503428 55.7446172"></polygon>
                        <g id="Group" transform="translate(15.559072, 38.571017)" fill="#D35933">
                            <path d="M3.15362935,25.1754386 L1.35752901,25.1754386 C0.637727453,25.1754386 0.0538732859,24.5937722 0.0538732859,23.8762349 L0.0538732859,10.9590145 C0.0538732859,10.2416711 0.637532964,9.65981083 1.35752901,9.65981083 L3.15362935,9.65981083 C3.87343091,9.65981083 4.45728507,10.2414773 4.45728507,10.9590145 L4.45728507,23.8762349 C4.45709059,24.5937722 3.87343091,25.1754386 3.15362935,25.1754386 Z" id="Shape"></path>
                            <path d="M37.6428402,34.8139288 L36.6919864,34.8139288 C35.5215552,34.8139288 34.5726464,33.8682605 34.5726464,32.7018264 L34.5726464,2.13361687 C34.5726464,0.967182793 35.5215552,0.021514487 36.6919864,0.021514487 L37.6428402,0.021514487 C38.8132714,0.021514487 39.7621802,0.967182793 39.7621802,2.13361687 L39.7621802,32.7020202 C39.7619858,33.8684543 38.8132714,34.8139288 37.6428402,34.8139288 Z" id="Shape"></path>
                        </g>
                        <g id="Group" transform="translate(15.559072, 55.627547)" fill="#B54324">
                            <path d="M0.0538732859,0.117069821 L0.0538732859,6.81989855 C0.0538732859,7.53724194 0.637532964,8.11910221 1.35752901,8.11910221 L3.15362935,8.11910221 C3.87343091,8.11910221 4.45728507,7.53743576 4.45728507,6.81989855 L4.45728507,0.117069821 L0.0538732859,0.117069821 Z" id="Shape"></path>
                            <path d="M34.5726464,0.117069821 L34.5726464,15.6452962 C34.5726464,16.8117302 35.5215552,17.7573985 36.6919864,17.7573985 L37.6428402,17.7573985 C38.8132714,17.7573985 39.7621802,16.8117302 39.7621802,15.6452962 L39.7621802,0.117069821 L34.5726464,0.117069821 L34.5726464,0.117069821 Z" id="Shape"></path>
                        </g>
                    </g>
                </g>
            </g>
        </g>
    </g>
</svg>