<?xml version="1.0" encoding="UTF-8" standalone="no"?>
<svg width="100px" height="100px" viewBox="0 0 100 100" version="1.1" xmlns="http://www.w3.org/2000/svg" xmlns:xlink="http://www.w3.org/1999/xlink">
    <!-- Generator: Sketch 43.2 (39069) - http://www.bohemiancoding.com/sketch -->
    <title>solidarity</title>
    <desc>Created with Sketch.</desc>
    <defs>
        <rect id="path-1" x="40.8203125" y="37.5" width="9.1796875" height="14.453125"></rect>
    </defs>
    <g id="Page-1" stroke="none" stroke-width="1" fill="none" fill-rule="evenodd">
        <g id="Banner-Features" transform="translate(-1124.000000, -26.000000)">
            <g id="Jobs&amp;Events" transform="translate(958.000000, 4.000000)">
                <g id="Icon-and-text" transform="translate(45.000000, 22.000000)">
                    <g id="solidarity" transform="translate(121.000000, 0.000000)">
                        <circle id="Oval" fill="#273B7A" fill-rule="nonzero" cx="50" cy="50" r="50"></circle>
                        <path d="M97.5322266,65.5457031 L69.4443359,37.4578125 L51.2019531,56.8695312 L50,58.5017578 L32.04375,76.6910156 L55.0962891,99.7435547 C75.0298828,97.7251953 91.5013672,83.996875 97.5322266,65.5457031 Z" id="Shape" fill="#121149" fill-rule="nonzero"></path>
                        <path d="M54.2087891,22.2222656 L34.9185547,22.2222656 C32.5087891,22.2222656 30.5556641,24.1757813 30.5556641,26.5851563 L30.5556641,73.4144531 C30.5556641,75.8242188 32.5091797,77.7773438 34.9185547,77.7773438 L65.08125,77.7773438 C67.4910156,77.7773438 69.4441406,75.8238281 69.4441406,73.4144531 L69.4441406,37.4580078 L54.2087891,22.2222656 Z" id="Shape" fill="#FFFFFF" fill-rule="nonzero"></path>
                        <path d="M54.2087891,22.2222656 L50.0070312,22.2222656 L50.0070312,77.7777344 L65.0810547,77.7777344 C67.4908203,77.7777344 69.4439453,75.8242188 69.4439453,73.4148438 L69.4439453,37.4580078 L54.2087891,22.2222656 Z" id="Shape" fill="#D0D1D3" fill-rule="nonzero"></path>
                        <path d="M54.2087891,33.0945312 C54.2087891,35.5042969 56.1623047,37.4574219 58.5716797,37.4574219 L69.4441406,37.4574219 L54.2087891,22.2220703 L54.2087891,33.0945312 Z" id="Shape" fill="#A6A8AA" fill-rule="nonzero"></path>
                        <path d="M49.5861328,51.2279297 C49.784375,51.5201172 50.2158203,51.5201172 50.4140625,51.2279297 C51.9964844,48.8931641 57.5759766,45.9935547 57.5759766,42.2396484 C57.5759766,39.6507813 55.8800781,38.4517578 53.7880859,38.4517578 C51.6960938,38.4517578 50.0001953,40.1476563 50.0001953,42.2396484 C50.0001953,40.1476563 48.3042969,38.4517578 46.2123047,38.4517578 C44.1203125,38.4517578 42.4244141,39.6507813 42.4244141,42.2396484 C42.4242188,45.9935547 48.0033203,48.8933594 49.5861328,51.2279297 Z" id="Shape" fill="#C92F00" fill-rule="nonzero"></path>
                        <path d="M50.0066406,51.4445313 C50.1810547,51.4525391 50.3029297,51.3916016 50.4136719,51.228125 C51.9960938,48.8931641 57.5755859,45.99375 57.5755859,42.2396484 C57.5755859,39.6507813 55.8796875,38.4517578 53.7876953,38.4517578 C51.6957031,38.4517578 49.9998047,40.1476563 49.9998047,42.2396484 L50.0066406,51.4445313 Z" id="Shape" fill="#930000" fill-rule="nonzero"></path>
                        <rect id="Rectangle-path" fill="#FF5419" fill-rule="nonzero" x="54.3738281" y="63.5521484" width="11.0945312" height="4.16035156"></rect>
                        <g id="Group" transform="translate(54.296875, 63.476562)" fill-rule="nonzero" fill="#C92F00">
                            <rect id="Rectangle-path" x="5.62558594" y="0.0755859375" width="5.54707031" height="4.16035156"></rect>
                            <polygon id="Shape" points="11.1728516 18.9867188 0.078125 6.29511719 0.078125 0.0755859375 14.5347656 16.1291016"></polygon>
                        </g>
                        <g id="Group" transform="translate(50.976562, 63.476562)" fill-rule="nonzero" fill="#930000">
                            <polygon id="Shape" points="3.3984375 3.38300781 3.3984375 6.29511719 14.4931641 18.9867187 16.1507813 17.5777344"></polygon>
                            <polygon id="Shape" points="3.3984375 18.9867188 14.4931641 6.29511719 14.4931641 0.0755859375 0.0365234375 16.1291016"></polygon>
                        </g>
                        <polygon id="Shape" fill="#770303" fill-rule="nonzero" points="52.7683594 81.0976562 54.375 82.4632812 65.4697266 69.7716797 65.4697266 66.6376953"></polygon>
                        <rect id="Rectangle-2" fill="#D0D1D3" x="50" y="38.0859375" width="9.1796875" height="14.453125"></rect>
                        <g id="Rectangle">
                            <use fill="#FFFFFF" fill-rule="evenodd" xlink:href="#path-1"></use>
                            <rect stroke="#FFFFFF" stroke-width="1" x="41.3203125" y="38" width="8.1796875" height="13.453125"></rect>
                        </g>
                    </g>
                </g>
            </g>
        </g>
    </g>
</svg>